PathFileType	4	(X/Y/Z)	/Users/itak/Documents/Research/Walk-IL/dataset/trc/00265_00009.trc
DataRate	CameraRate	NumFrames	NumMarkers	Units	OrigDataRate	OrigDataStartFrame	OrigNumFrames
100.000000	100.000000	4	54	mm	100.000000	214	428
Frame#	Time	RPSI			LPSI			L3			STRN			T10			C7			CLAV			RBAK			LBAK			LSHO			LUPA			LAEL			LAOL			LWTS			LWPS			LFRA			LIFD			LHPS			LHTS			RSHO			RUPA			RAEL			RAOL			RWTS			RWPS			RFRA			RIFD			RHTS			RHPS			RBHD			LFHD			RFHD			LBHD			LHIP			RHIP			RASI			LASI			LKNE			LTHI			LANK			LTIP			LTOE			LMT1			LMT5			LHEE			RKNE			RTHI			RANK			RTIP			RTOE			RMT1			RMT5			RHEE			*53			
		X1	Y1	Z1	X2	Y2	Z2	X3	Y3	Z3	X4	Y4	Z4	X5	Y5	Z5	X6	Y6	Z6	X7	Y7	Z7	X8	Y8	Z8	X9	Y9	Z9	X10	Y10	Z10	X11	Y11	Z11	X12	Y12	Z12	X13	Y13	Z13	X14	Y14	Z14	X15	Y15	Z15	X16	Y16	Z16	X17	Y17	Z17	X18	Y18	Z18	X19	Y19	Z19	X20	Y20	Z20	X21	Y21	Z21	X22	Y22	Z22	X23	Y23	Z23	X24	Y24	Z24	X25	Y25	Z25	X26	Y26	Z26	X27	Y27	Z27	X28	Y28	Z28	X29	Y29	Z29	X30	Y30	Z30	X31	Y31	Z31	X32	Y32	Z32	X33	Y33	Z33	X34	Y34	Z34	X35	Y35	Z35	X36	Y36	Z36	X37	Y37	Z37	X38	Y38	Z38	X39	Y39	Z39	X40	Y40	Z40	X41	Y41	Z41	X42	Y42	Z42	X43	Y43	Z43	X44	Y44	Z44	X45	Y45	Z45	X46	Y46	Z46	X47	Y47	Z47	X48	Y48	Z48	X49	Y49	Z49	X50	Y50	Z50	X51	Y51	Z51	X52	Y52	Z52	X53	Y53	Z53	X54	Y54	Z54	

215	2.14	-363.9278259277344	1013.9111328125	234.1593475341797	-474.70068359375	1022.926818847656	189.4356231689453	-441.4782409667969	1105.90625	211.6723022460938	-352.0337219238281	1287.529541015625	-25.26521301269531	-442.2084655761719	1232.97412109375	213.8200836181641	-424.1482238769531	1492.764770507812	146.2890319824219	-359.8727111816406	1405.60791015625	-3.430390119552612	-385.7102661132812	1354.894165039062	247.7325744628906	-534.2294921875	1455.664672851562	123.5223846435547	-550.0188598632812	1454.130859375	20.25057220458984	-632.99072265625	1337.743774414062	10.36201953887939	-647.6695556640625	1133.66357421875	-42.54201889038086	-641.3828125	1098.522705078125	38.27252578735352	-475.4726257324219	986.1123657226562	-154.2301483154297	-543.9852294921875	954.2378540039062	-192.7577209472656	-614.1602783203125	1049.5849609375	-101.2357177734375	-404.7731018066406	827.0897827148438	-245.9545135498047	-497.9460144042969	890.1270141601562	-237.0888061523438	-436.5646057128906	920.0777587890625	-229.868408203125	-246.2118530273438	1452.070556640625	159.283447265625	-193.5114593505859	1386.918334960938	203.0818176269531	-155.4197845458984	1108.099243164062	237.4848785400391	-250.0363922119141	1099.503540039062	232.8129425048828	-138.7810363769531	895.6248779296875	90.58012390136719	-96.43213653564453	881.8247680664062	162.3535003662109	-131.6893615722656	1040.335693359375	215.9999694824219	-133.4169921875	702.4441528320312	71.3037109375	-110.2217102050781	776.309814453125	55.77878570556641	-78.32042694091797	775.4869384765625	121.6480865478516	-346.4290161132812	1653.652709960938	111.7053756713867	-385.7886657714844	1680.920288085938	-110.6588668823242	-288.9903869628906	1679.787719726562	-84.23089599609375	-462.8095092773438	1657.773681640625	32.75945281982422	-573.2493896484375	965.1080322265625	45.72019577026367	-230.6483154296875	980.7822265625	176.1126403808594	-235.0155487060547	1024.085327148438	76.12012481689453	-494.5067443847656	1007.615783691406	-32.49017715454102	-502.3263244628906	486.8597106933594	90.85889434814453	-533.8837890625	627.6046142578125	60.74166488647461	-509.82861328125	39.55155563354492	273.199951171875	-517.1582641601562	272.1293029785156	181.8013458251953	-380.485107421875	42.43417358398438	91.56626892089844	-366.0930786132812	37.41670608520508	172.0908508300781	-481.1984252929688	39.42360305786133	147.1873626708984	-484.6886596679688	49.53163146972656	348.8398132324219	-171.9504852294922	529.7311401367188	-20.70268249511719	-176.2315216064453	778.6642456054688	78.51184844970703	-140.768798828125	42.75569915771484	-132.895263671875	-164.2230072021484	422.1660461425781	-71.66313934326172	-111.6032409667969	140.3200073242188	-317.5001831054688	-171.3598785400391	116.882698059082	-288.2667236328125	-82.10135650634766	78.21368408203125	-220.6461639404297	-216.2163696289062	25.82205390930176	-97.18731689453125	nan	nan	nan	
216	2.15	-359.3130493164062	1012.658752441406	227.8937072753906	-470.39697265625	1021.960144042969	183.8712463378906	-437.0361022949219	1104.68505859375	205.9152374267578	-348.8818969726562	1286.33154296875	-31.34645652770996	-437.8432006835938	1231.749389648438	208.1757659912109	-420.0459289550781	1491.550903320312	140.6223602294922	-356.5192260742188	1404.415771484375	-9.41818904876709	-381.3017883300781	1353.584228515625	241.8279724121094	-530.1917724609375	1454.49658203125	118.3935546875	-546.5505981445312	1452.935791015625	15.18708896636963	-629.736572265625	1336.57373046875	6.050777912139893	-645.1243896484375	1132.259033203125	-45.8796272277832	-638.577392578125	1097.580322265625	35.10745620727539	-474.0716247558594	983.1923828125	-157.3907012939453	-542.8821411132812	951.5471801757812	-195.5190887451172	-612.2133178710938	1047.713623046875	-104.2419052124023	-404.6796264648438	822.9554443359375	-248.0578308105469	-497.358154296875	886.7652587890625	-239.4798583984375	-435.7406005859375	916.2735595703125	-232.6244812011719	-242.0640869140625	1450.74560546875	152.8553161621094	-189.2673187255859	1385.540771484375	196.4035339355469	-151.3626861572266	1106.595703125	230.5265350341797	-246.0602111816406	1098.163330078125	226.1697998046875	-135.5038452148438	894.4244995117188	83.19487762451172	-92.98341369628906	880.3491821289062	154.8324432373047	-127.8349609375	1038.816528320312	208.8845520019531	-130.4449157714844	701.2577514648438	63.41226196289062	-107.162483215332	775.1749877929688	47.99087524414062	-75.12860870361328	774.0879516601562	113.8093185424805	-342.4999389648438	1652.43115234375	105.8713150024414	-382.67333984375	1679.865234375	-116.3362655639648	-285.8041076660156	1678.716552734375	-90.26667022705078	-459.1426391601562	1656.645751953125	27.36491012573242	-569.9378051757812	964.3232421875	40.78460693359375	-226.5593719482422	979.1367797851562	169.1191864013672	-231.3987426757812	1022.307983398438	69.20272827148438	-491.6009826660156	1006.601318359375	-38.02253341674805	-500.808349609375	486.3318481445312	87.99578857421875	-531.7935791015625	626.9794921875	57.29206466674805	-509.4266662597656	39.95636749267578	273.3341369628906	-516.3338012695312	272.3038940429688	180.4060211181641	-380.5699462890625	42.38994216918945	91.46126556396484	-366.0937805175781	37.4031982421875	171.9948577880859	-481.1669006347656	39.44338226318359	147.2178802490234	-484.2957458496094	50.40367126464844	348.8842468261719	-170.7066802978516	528.12939453125	-27.98301124572754	-174.1501770019531	775.6165161132812	71.93624877929688	-139.2497863769531	42.52735900878906	-146.5194854736328	-162.9739074707031	421.2081298828125	-79.95298767089844	-110.6245193481445	142.8763885498047	-329.8828430175781	-170.2828979492188	118.9810028076172	-300.7806396484375	-80.85163879394531	79.38506317138672	-233.9847412109375	-214.5307159423828	25.03944206237793	-110.7632522583008	nan	nan	nan	
217	2.16	-354.6325988769531	1011.39404296875	221.5364379882812	-466.0248718261719	1020.976196289062	178.2388610839844	-432.5263977050781	1103.450073242188	200.0968933105469	-345.7015686035156	1285.126708984375	-37.50359344482422	-433.4252014160156	1230.514770507812	202.4604034423828	-415.8772888183594	1490.32080078125	134.9058074951172	-353.1197509765625	1403.210815429688	-15.4670877456665	-376.8382873535156	1352.2529296875	235.8622589111328	-526.1105346679688	1453.32080078125	113.2106323242188	-543.02880859375	1451.7275390625	10.07999038696289	-626.4445190429688	1335.395141601562	1.682557344436646	-642.5059814453125	1130.844116210938	-49.24594497680664	-635.6683959960938	1096.656372070312	31.92397308349609	-472.7610168457031	980.0536499023438	-160.5429840087891	-541.8863525390625	948.682861328125	-198.2232208251953	-610.2692260742188	1045.774658203125	-107.2423782348633	-404.8428649902344	818.5106201171875	-250.0617218017578	-496.9690246582031	883.1734619140625	-241.7879180908203	-435.0763854980469	912.1824340820312	-235.3313293457031	-237.8635559082031	1449.39697265625	146.3433074951172	-184.9573364257812	1384.134765625	189.6291961669922	-147.2255096435547	1105.079467773438	223.466796875	-241.9813842773438	1096.77880859375	219.4432983398438	-132.1723022460938	893.1807861328125	75.75648498535156	-89.45405578613281	878.8493041992188	147.2479705810547	-123.9007949829102	1037.292236328125	201.6687622070312	-127.406135559082	700.0206298828125	55.53587341308594	-104.0672988891602	773.9805297851562	40.18332672119141	-71.87206268310547	772.6563720703125	105.9270324707031	-338.5177001953125	1651.183837890625	99.99868774414062	-379.4983520507812	1678.8212890625	-122.0377502441406	-282.5663452148438	1677.64697265625	-96.34029388427734	-455.4258117675781	1655.5068359375	21.93873977661133	-566.5797729492188	963.5325927734375	35.81234741210938	-222.4266662597656	977.48583984375	161.9840545654297	-227.7380676269531	1020.525268554688	62.14360046386719	-488.6979675292969	1005.567016601562	-43.62245559692383	-499.2438659667969	485.7919311523438	84.96306610107422	-529.682861328125	626.3544921875	53.69087600708008	-509.0768127441406	40.41904830932617	273.4149169921875	-515.36572265625	272.4455261230469	178.9474945068359	-380.6605834960938	42.33744430541992	91.35091400146484	-366.0992126464844	37.40499496459961	171.8949584960938	-481.1459350585938	39.45719146728516	147.2298889160156	-483.9691162109375	51.34671401977539	348.8875122070312	-169.3524169921875	526.56201171875	-35.49214553833008	-171.9569702148438	772.82763671875	65.09111022949219	-138.3542785644531	41.90341186523438	-158.5158996582031	-161.7892761230469	420.04833984375	-88.18499755859375	-110.5043487548828	144.2797546386719	-341.0230712890625	-170.0311431884766	120.0835266113281	-311.8797302246094	-80.34829711914062	79.74481964111328	-245.9175872802734	-213.4232330322266	24.17145919799805	-122.496208190918	nan	nan	nan	
218	2.17	-349.8910522460938	1010.132934570312	215.0755462646484	-461.5774841308594	1019.981689453125	172.5291442871094	-427.9510498046875	1102.205688476562	194.2076110839844	-342.4931335449219	1283.931396484375	-43.74084854125977	-428.9528198242188	1229.271240234375	196.6737976074219	-411.64306640625	1489.08251953125	129.1426544189453	-349.6753234863281	1402.00439453125	-21.57843017578125	-372.3124694824219	1350.905517578125	229.8370208740234	-521.9818115234375	1452.145751953125	107.9796829223633	-539.4566040039062	1450.517822265625	4.931953907012939	-623.1201782226562	1334.217895507812	-2.74087119102478	-639.8135375976562	1129.428833007812	-52.63491821289062	-632.6405029296875	1095.75927734375	28.72801780700684	-471.534423828125	976.7198486328125	-163.6878204345703	-540.9952392578125	945.6658935546875	-200.86865234375	-608.32421875	1043.782348632812	-110.2324752807617	-405.2710266113281	813.7850341796875	-251.9766998291016	-496.78515625	879.3814086914062	-244.0176086425781	-434.5746154785156	907.8346557617188	-237.9913330078125	-233.6098175048828	1448.034057617188	139.7470855712891	-180.5771331787109	1382.710693359375	182.7575225830078	-143.0084075927734	1103.5615234375	216.300537109375	-237.7995910644531	1095.366088867188	212.6319885253906	-128.7889556884766	891.8937377929688	68.26732635498047	-85.8455810546875	877.332275390625	139.5991668701172	-119.8830871582031	1035.771240234375	194.3491821289062	-124.3135681152344	698.7349243164062	47.6873664855957	-100.9474716186523	772.721435546875	32.37023162841797	-68.54771423339844	771.1986694335938	98.01042938232422	-334.4857788085938	1649.925903320312	94.08363342285156	-376.2645874023438	1677.794555664062	-127.7677383422852	-279.2742919921875	1676.583374023438	-102.4540863037109	-451.6668701171875	1654.365112304688	16.47500991821289	-563.1719970703125	962.7400512695312	30.78559303283691	-218.2462158203125	975.8549194335938	154.6970062255859	-224.0296173095703	1018.762512207031	54.93252944946289	-485.7698974609375	1004.530334472656	-49.31256103515625	-497.6239624023438	485.2403869628906	81.75417327880859	-527.5537109375	625.732666015625	49.92390060424805	-508.79296875	40.9473762512207	273.4304809570312	-514.2926025390625	272.5690002441406	177.396484375	-380.75341796875	42.27535247802734	91.23955535888672	-366.1124267578125	37.42439651489258	171.7893524169922	-481.1421508789062	39.46446990966797	147.2219696044922	-483.7223510742188	52.37441253662109	348.8445739746094	-167.8834228515625	525.0405883789062	-43.2416877746582	-169.5773620605469	770.4290161132812	57.99117279052734	-138.0586853027344	40.87135696411133	-168.8285064697266	-160.6744232177734	418.6871643066406	-96.36712646484375	-111.2736587524414	144.3930511474609	-350.940185546875	-170.6231079101562	120.0575637817383	-321.5563049316406	-80.59901428222656	79.21873474121094	-256.4189147949219	-212.8322143554688	23.25720405578613	-132.2724914550781	nan	nan	nan	
